<?xml version="1.0" encoding="utf-8"?>
<!-- Generator: Adobe Illustrator 24.0.1, SVG Export Plug-In . SVG Version: 6.00 Build 0)  -->
<svg version="1.1" id="Layer_1" xmlns="http://www.w3.org/2000/svg" xmlns:xlink="http://www.w3.org/1999/xlink" x="0px" y="0px"
	 viewBox="0 0 2648.84 1489.24" style="enable-background:new 0 0 2648.84 1489.24;" xml:space="preserve">
<style type="text/css">
	.st0{fill:#2F2E40;}
	.st1{font-family:'BalooThambi-Regular';}
	.st2{font-size:497.5483px;}
	.st3{fill:none;stroke:#2F2E40;stroke-width:14;stroke-miterlimit:10;}
</style>
<text transform="matrix(1.0702 0 0 1 707.1074 1070.1025)" class="st0 st1 st2">nemx</text>
<line class="st3" x1="2451" y1="1273.19" x2="150.5" y2="1258.01"/>
<line class="st3" x1="1057.3" y1="607.31" x2="157.16" y2="598.73"/>
<line class="st3" x1="2451" y1="622.8" x2="1542.83" y2="613.79"/>
<g>
	<path class="st0" d="M1450.06,456.9c-3.64,42.35-66.82,313.2-137.25,313.01c-70.3-0.18-128.38-271.23-132.14-313.71
		c-5.34-60.49-12.59-94.13,22.3-120.89s73.37-21.8,126.5-21.66C1435.75,313.92,1461.4,324.98,1450.06,456.9z"/>
	<g>
		<path class="st0" d="M1204.41,162.87c10.1,15.16,21.77,35.88,30.97,61.94c11.19,31.7,14.7,59.94,15.63,80.36
			c30.92-21.63,61.84-43.25,92.77-64.88C1297.32,214.49,1250.87,188.68,1204.41,162.87z"/>
		<polygon class="st0" points="1322.1,135 1250.87,305.34 1393.34,305.34 		"/>
		<path class="st0" d="M1439.38,162.88c-10.1,15.16-21.77,35.88-30.97,61.94c-11.19,31.7-14.7,59.94-15.63,80.36
			c-30.92-21.63-61.84-43.25-92.77-64.88C1346.47,214.5,1392.93,188.69,1439.38,162.88z"/>
	</g>
</g>
<path class="st0" d="M1521.53,297.25"/>
</svg>
